<svg width="32" height="32" viewBox="0 0 32 32" fill="none" xmlns="http://www.w3.org/2000/svg">
  <circle cx="16" cy="16" r="14" fill="#FF6B35"/>
  <path d="M16 6C11.5817 6 8 9.58172 8 14V22C8 23.1046 8.89543 24 10 24C10.5523 24 11 23.5523 11 23V22C11 21.4477 11.4477 21 12 21C12.5523 21 13 21.4477 13 22V23C13 23.5523 13.4477 24 14 24C14.5523 24 15 23.5523 15 23V22C15 21.4477 15.4477 21 16 21C16.5523 21 17 21.4477 17 22V23C17 23.5523 17.4477 24 18 24C18.5523 24 19 23.5523 19 23V22C19 21.4477 19.4477 21 20 21C20.5523 21 21 21.4477 21 22V23C21 23.5523 21.4477 24 22 24C23.1046 24 24 23.1046 24 22V14C24 9.58172 20.4183 6 16 6Z" fill="white"/>
  <circle cx="12" cy="13" r="1.5" fill="#FF6B35"/>
  <circle cx="20" cy="13" r="1.5" fill="#FF6B35"/>
</svg>